<?xml version="1.0" standalone="no"?>
<!DOCTYPE svg PUBLIC "-//W3C//DTD SVG 20010904//EN"
 "http://www.w3.org/TR/2001/REC-SVG-20010904/DTD/svg10.dtd">
<svg version="1.0" xmlns="http://www.w3.org/2000/svg"
 width="200.000000pt" height="200.000000pt" viewBox="0 0 200.000000 200.000000"
 preserveAspectRatio="xMidYMid meet">
<metadata>
Created by potrace 1.14, written by Peter Selinger 2001-2017
</metadata>
<g transform="translate(0.000000,200.000000) scale(0.100000,-0.100000)"
fill="#000000" stroke="none">
<path d="M445 1461 c-164 -47 -295 -173 -340 -326 -26 -89 -24 -214 4 -303 13
-40 27 -72 32 -72 5 0 9 -7 9 -15 0 -9 31 -47 69 -85 105 -104 207 -150 341
-151 114 -1 218 31 300 92 33 24 42 26 141 24 96 -1 108 -3 140 -27 145 -109
369 -120 528 -25 62 37 152 130 183 190 113 213 57 467 -135 613 -132 99 -123
98 -707 100 -451 2 -511 1 -565 -15z m222 -256 c1 -49 2 -95 2 -102 1 -8 30
-12 97 -12 53 0 99 -3 102 -5 4 -5 5 -21 3 -138 l-1 -57 -100 2 -100 2 -1 -45
c-1 -25 -1 -71 0 -102 1 -54 0 -58 -21 -59 -103 -2 -169 -1 -174 3 -3 3 -5 49
-6 102 0 82 -2 96 -17 97 -9 0 -53 0 -97 0 -58 -1 -83 2 -86 11 -4 11 -3 152
1 183 1 7 37 10 101 8 l100 -4 0 104 0 104 98 -1 97 -1 2 -90z m924 26 c16 -2
57 -50 67 -78 12 -37 1 -93 -24 -118 -42 -42 -90 -51 -146 -27 -75 31 -84 159
-14 205 34 22 52 25 117 18z m-225 -257 c72 -48 71 -144 -1 -207 -30 -27 -118
-19 -146 14 -42 48 -50 99 -22 147 34 59 115 81 169 46z"/>
</g>
</svg>
